<svg width="411" height="27" viewBox="0 0 411 27" fill="none" xmlns="http://www.w3.org/2000/svg">
<path d="M6.64 26H0.16V0.799998H20.14V5.84H6.64V11.78H17.26V16.82H6.64V26ZM34.54 26H21.58V20.96H24.82V5.84H21.58V0.799998H34.54V5.84H31.3V20.96H34.54V26ZM50.0172 26H43.5372V5.84H35.9772V0.799998H57.5772V5.84H50.0172V26ZM80.0814 26H60.1014V0.799998H80.0814V5.84H66.5814V10.7H77.2014V15.74H66.5814V20.96H80.0814V26ZM82.953 0.799998H98.073C100.593 0.799998 102.417 1.376 103.545 2.528C104.697 3.656 105.273 5.48 105.273 8V11.24C105.273 13.232 104.937 14.78 104.265 15.884C103.617 16.988 102.573 17.72 101.133 18.08L105.633 26H98.613L94.473 18.44H89.433V26H82.953V0.799998ZM98.793 8C98.793 6.56 98.073 5.84 96.633 5.84H89.433V13.4H96.633C98.073 13.4 98.793 12.68 98.793 11.24V8Z" fill="#875EFF"/>
<path d="M139.096 25.64C133.744 26.12 129.304 26.36 125.776 26.36C123.424 26.36 121.696 25.808 120.592 24.704C119.488 23.6 118.936 21.872 118.936 19.52V8C118.936 5.48 119.5 3.656 120.628 2.528C121.78 1.376 123.616 0.799998 126.136 0.799998H139.096V5.84H127.576C126.136 5.84 125.416 6.56 125.416 8V19.52C125.416 20.072 125.572 20.516 125.884 20.852C126.22 21.164 126.64 21.32 127.144 21.32C127.648 21.32 128.2 21.32 128.8 21.32C129.4 21.296 130.024 21.272 130.672 21.248C131.32 21.224 131.968 21.2 132.616 21.176C133.288 21.152 134.14 21.104 135.172 21.032C136.228 20.96 137.536 20.876 139.096 20.78V25.64ZM158.18 7.64C158.18 6.2 157.46 5.48 156.02 5.48H149.9C148.46 5.48 147.74 6.2 147.74 7.64V19.16C147.74 20.6 148.46 21.32 149.9 21.32H156.02C157.46 21.32 158.18 20.6 158.18 19.16V7.64ZM164.66 19.16C164.66 21.68 164.084 23.516 162.932 24.668C161.804 25.796 159.98 26.36 157.46 26.36H148.46C145.94 26.36 144.104 25.796 142.952 24.668C141.824 23.516 141.26 21.68 141.26 19.16V7.64C141.26 5.12 141.824 3.296 142.952 2.168C144.104 1.016 145.94 0.439999 148.46 0.439999H157.46C159.98 0.439999 161.804 1.016 162.932 2.168C164.084 3.296 164.66 5.12 164.66 7.64V19.16ZM174.757 20.96H187.897V26H168.277V0.799998H174.757V20.96ZM196.906 20.96H210.046V26H190.426V0.799998H196.906V20.96ZM217.074 26H210.054L219.594 0.799998H226.794L236.334 26H229.314L227.694 21.5H218.694L217.074 26ZM220.314 16.82H226.074L223.194 8.36L220.314 16.82ZM238.133 0.799998H252.533C254.885 0.799998 256.613 1.34 257.717 2.42C258.821 3.476 259.373 5.096 259.373 7.28C259.373 8.72 259.061 9.896 258.437 10.808C257.813 11.696 257.045 12.32 256.133 12.68C258.077 13.208 259.397 14.504 260.093 16.568C260.333 17.312 260.453 18.176 260.453 19.16C260.453 21.512 259.901 23.24 258.797 24.344C257.693 25.448 255.965 26 253.613 26H238.133V0.799998ZM253.973 18.08C253.973 16.64 253.253 15.92 251.813 15.92H244.613V20.96H251.813C253.253 20.96 253.973 20.24 253.973 18.8V18.08ZM252.893 8C252.893 6.56 252.173 5.84 250.733 5.84H244.613V10.88H250.733C252.173 10.88 252.893 10.16 252.893 8.72V8ZM279.891 7.64C279.891 6.2 279.171 5.48 277.731 5.48H271.611C270.171 5.48 269.451 6.2 269.451 7.64V19.16C269.451 20.6 270.171 21.32 271.611 21.32H277.731C279.171 21.32 279.891 20.6 279.891 19.16V7.64ZM286.371 19.16C286.371 21.68 285.795 23.516 284.643 24.668C283.515 25.796 281.691 26.36 279.171 26.36H270.171C267.651 26.36 265.815 25.796 264.663 24.668C263.535 23.516 262.971 21.68 262.971 19.16V7.64C262.971 5.12 263.535 3.296 264.663 2.168C265.815 1.016 267.651 0.439999 270.171 0.439999H279.171C281.691 0.439999 283.515 1.016 284.643 2.168C285.795 3.296 286.371 5.12 286.371 7.64V19.16ZM289.988 0.799998H305.108C307.628 0.799998 309.452 1.376 310.58 2.528C311.732 3.656 312.308 5.48 312.308 8V11.24C312.308 13.232 311.972 14.78 311.3 15.884C310.652 16.988 309.608 17.72 308.168 18.08L312.668 26H305.648L301.508 18.44H296.468V26H289.988V0.799998ZM305.828 8C305.828 6.56 305.108 5.84 303.668 5.84H296.468V13.4H303.668C305.108 13.4 305.828 12.68 305.828 11.24V8ZM320.398 26H313.378L322.918 0.799998H330.118L339.658 26H332.638L331.018 21.5H322.018L320.398 26ZM323.638 16.82H329.398L326.518 8.36L323.638 16.82ZM351.166 26H344.686V5.84H337.126V0.799998H358.726V5.84H351.166V26ZM377.45 7.64C377.45 6.2 376.73 5.48 375.29 5.48H369.17C367.73 5.48 367.01 6.2 367.01 7.64V19.16C367.01 20.6 367.73 21.32 369.17 21.32H375.29C376.73 21.32 377.45 20.6 377.45 19.16V7.64ZM383.93 19.16C383.93 21.68 383.354 23.516 382.202 24.668C381.074 25.796 379.25 26.36 376.73 26.36H367.73C365.21 26.36 363.374 25.796 362.222 24.668C361.094 23.516 360.53 21.68 360.53 19.16V7.64C360.53 5.12 361.094 3.296 362.222 2.168C363.374 1.016 365.21 0.439999 367.73 0.439999H376.73C379.25 0.439999 381.074 1.016 382.202 2.168C383.354 3.296 383.93 5.12 383.93 7.64V19.16ZM387.547 0.799998H402.667C405.187 0.799998 407.011 1.376 408.139 2.528C409.291 3.656 409.867 5.48 409.867 8V11.24C409.867 13.232 409.531 14.78 408.859 15.884C408.211 16.988 407.167 17.72 405.727 18.08L410.227 26H403.207L399.067 18.44H394.027V26H387.547V0.799998ZM403.387 8C403.387 6.56 402.667 5.84 401.227 5.84H394.027V13.4H401.227C402.667 13.4 403.387 12.68 403.387 11.24V8Z" fill="#FFFAFA"/>
</svg>
